#!OML:ASF F:\VICON\USERDATA\INSTALL\rory3\rory3.ASF
:FULLY-SPECIFIED
:DEGREES
642
root 0.485256 15.7336 -3.16771 342.214 -46.549 -357.044
lowerback 18.3977 -0.188031 -5.85569
upperback 11.2185 -1.54541 -0.55121
thorax 1.92887 -1.24729 2.9589
lowerneck -8.14952 -14.3187 -19.2932
upperneck 19.4819 -19.173 10.423
head 10.4828 -9.48314 4.06009
rclavicle -1.09282e-013 3.85642e-014
rhumerus -27.3763 25.1241 -93.6071
rradius 86.2802
rwrist 37.1154
rhand -35.025 15.2896
rfingers 7.12502
rthumb -8.16888 -14.5325
lclavicle -1.09282e-013 3.85642e-014
lhumerus -23.9271 -10.0345 86.7116
lradius 68.2285
lwrist -4.59763
lhand -21.9833 19.4326
lfingers 7.12502
lthumb 4.42488 49.3663
rfemur -73.5568 -27.302 26.2657
rtibia 137.276
rfoot 5.35406 4.38905
rtoes 4.55434
lfemur -43.4554 31.8508 -17.9905
ltibia 99.8444
lfoot 0.665692 -6.96336
ltoes -17.3711
643
root 0.483966 15.7322 -3.16744 342.25 -46.5272 -357.076
lowerback 18.4011 -0.186456 -5.85983
upperback 11.2188 -1.54392 -0.542548
thorax 1.92792 -1.24696 2.97027
lowerneck -8.15683 -14.2608 -19.2718
upperneck 19.4493 -19.0981 10.4599
head 10.4618 -9.44432 4.08497
rclavicle -1.09928e-013 5.1684e-014
rhumerus -27.3803 25.1017 -93.6452
rradius 86.2938
rwrist 37.1533
rhand -35.1353 15.1969
rfingers 7.12502
rthumb -8.27534 -14.6211
lclavicle -1.09928e-013 5.1684e-014
lhumerus -23.926 -10.1028 86.7056
lradius 68.2442
lwrist -4.56363
lhand -21.9645 19.454
lfingers 7.12502
lthumb 4.44306 49.3874
rfemur -73.5514 -27.2974 26.2213
rtibia 137.28
rfoot 5.46019 4.36851
rtoes 5.10569
lfemur -43.4829 31.8413 -17.982
ltibia 99.8647
lfoot 0.647725 -6.98174
ltoes -17.6042
644
root 0.483526 15.732 -3.16685 342.23 -46.4934 -356.981
lowerback 18.4018 -0.170388 -5.97094
upperback 11.1911 -1.53877 -0.531559
thorax 1.90216 -1.24842 3.04428
lowerneck -8.13797 -14.2161 -19.2844
upperneck 19.3794 -19.0351 10.4904
head 10.4275 -9.41443 4.11164
rclavicle 6.80837e-015 -2.5842e-015
rhumerus -27.3959 25.0975 -93.6365
rradius 86.3081
rwrist 37.1852
rhand -35.1567 15.1986
rfingers 7.12502
rthumb -8.29603 -14.6185
lclavicle 6.80837e-015 -2.5842e-015
lhumerus -23.9547 -10.1038 86.7459
lradius 68.2772
lwrist -4.52205
lhand -21.9033 19.4301
lfingers 7.12502
lthumb 4.50211 49.3623
rfemur -73.6097 -27.2921 26.0709
rtibia 137.299
rfoot 5.64964 4.34165
rtoes 6.0079
lfemur -43.541 31.8083 -18.1155
ltibia 99.8628
lfoot 0.706928 -6.90147
ltoes -17.2094
645
root 0.483736 15.7329 -3.16647 342.216 -46.4833 -356.919
lowerback 18.4306 -0.144344 -6.08228
upperback 11.1577 -1.52267 -0.48699
thorax 1.85599 -1.24486 3.15328
lowerneck -8.12167 -14.1712 -19.3604
upperneck 19.3506 -18.966 10.5208
head 10.4146 -9.38588 4.14726
rclavicle 2.06239e-014 -6.95746e-015
rhumerus -27.4493 25.1311 -93.5845
rradius 86.3535
rwrist 37.2028
rhand -35.1846 15.2015
rfingers 7.12502
rthumb -8.32296 -14.6145
lclavicle 2.06239e-014 -6.95746e-015
lhumerus -23.9771 -10.0581 86.8507
lradius 68.2775
lwrist -4.4869
lhand -21.9081 19.375
lfingers 7.12502
lthumb 4.49755 49.3072
rfemur -73.6546 -27.2399 25.9569
rtibia 137.287
rfoot 5.84614 4.38183
rtoes 6.41577
lfemur -43.5747 31.7881 -18.2017
ltibia 99.85
lfoot 0.689851 -6.83927
ltoes -16.8686
646
root 0.484018 15.7344 -3.16575 342.204 -46.4899 -356.9
lowerback 18.4594 -0.119327 -6.11045
upperback 11.1499 -1.49618 -0.467559
thorax 1.83214 -1.23271 3.18655
lowerneck -8.1274 -14.1279 -19.411
upperneck 19.3432 -18.9075 10.575
head 10.415 -9.35773 4.18413
rclavicle -7.8669e-014 4.57205e-015
rhumerus -27.5013 25.1363 -93.5413
rradius 86.4337
rwrist 37.2737
rhand -35.1794 15.0184
rfingers 7.12502
rthumb -8.31788 -14.7978
lclavicle -7.8669e-014 4.57205e-015
lhumerus -23.9707 -10.0369 86.9062
lradius 68.2711
lwrist -4.54476
lhand -21.7689 19.4105
lfingers 7.12502
lthumb 4.63191 49.3398
rfemur -73.6412 -27.1343 25.8637
rtibia 137.253
rfoot 6.11196 4.44193
rtoes 6.53366
lfemur -43.5623 31.7915 -18.2172
ltibia 99.8319
lfoot 0.653732 -6.83285
ltoes -16.982
647
root 0.484935 15.7358 -3.16567 342.207 -46.4614 -356.837
lowerback 18.448 -0.110655 -6.13917
upperback 11.1524 -1.4883 -0.499362
thorax 1.84003 -1.22924 3.16729
lowerneck -8.18749 -14.0922 -19.3442
upperneck 19.3136 -18.8641 10.6243
head 10.4062 -9.32685 4.19731
rclavicle 1.41435e-013 -5.14852e-014
rhumerus -27.5172 25.1127 -93.5336
rradius 86.5368
rwrist 37.3638
rhand -35.0909 14.7766
rfingers 7.12502
rthumb -8.2325 -15.043
lclavicle 1.41435e-013 -5.14852e-014
lhumerus -23.918 -10.0755 86.8755
lradius 68.258
lwrist -4.69566
lhand -21.6166 19.449
lfingers 7.12502
lthumb 4.77899 49.3751
rfemur -73.7275 -27.0538 25.7473
rtibia 137.248
rfoot 6.46877 4.52698
rtoes 6.72752
lfemur -43.6233 31.7526 -18.3189
ltibia 99.817
lfoot 0.638989 -6.83445
ltoes -17.2608
648
root 0.485307 15.7391 -3.16343 342.215 -46.4727 -356.776
lowerback 18.3962 -0.0846759 -6.16713
upperback 11.1762 -1.45502 -0.547064
thorax 1.88895 -1.21448 3.12516
lowerneck -8.31788 -14.0883 -19.0658
upperneck 19.309 -18.852 10.5194
head 10.3843 -9.30639 4.11758
rclavicle 8.34896e-015 -1.35174e-014
rhumerus -27.5245 24.9923 -93.5826
rradius 86.6315
rwrist 37.4915
rhand -35.0512 14.6978
rfingers 7.12502
rthumb -8.1942 -15.1233
lclavicle 8.34896e-015 -1.35174e-014
lhumerus -23.8181 -10.233 86.7891
lradius 68.2094
lwrist -4.71463
lhand -21.699 19.3497
lfingers 7.12502
lthumb 4.69944 49.2776
rfemur -73.7797 -26.9304 25.6518
rtibia 137.213
rfoot 6.88048 4.61044
rtoes 6.88506
lfemur -43.6534 31.7693 -18.3937
ltibia 99.7931
lfoot 0.652812 -6.82124
ltoes -17.4211
649
root 0.486303 15.7395 -3.16043 342.228 -46.5184 -356.741
lowerback 18.3383 -0.0509527 -6.16427
upperback 11.2043 -1.4065 -0.5758
thorax 1.94335 -1.19152 3.0833
lowerneck -8.37936 -14.0731 -18.8437
upperneck 19.2634 -18.8277 10.4323
head 10.3413 -9.28544 4.05896
rclavicle 3.68746e-014 -1.47101e-014
rhumerus -27.498 24.9104 -93.5877
rradius 86.6971
rwrist 37.521
rhand -35.1726 14.6916
rfingers 7.12502
rthumb -8.31138 -15.1249
lclavicle 3.68746e-014 -1.47101e-014
lhumerus -23.7411 -10.3142 86.7551
lradius 68.198
lwrist -4.67311
lhand -21.8246 19.293
lfingers 7.12502
lthumb 4.57817 49.2235
rfemur -73.829 -26.7741 25.6621
rtibia 137.123
rfoot 7.30626 4.66214
rtoes 6.28407
lfemur -43.6778 31.8019 -18.4248
ltibia 99.789
lfoot 0.700347 -6.81393
ltoes -17.2191
650
root 0.489373 15.7383 -3.15922 342.359 -46.5195 -356.857
lowerback 18.3407 -0.0610249 -6.08732
upperback 11.1997 -1.40782 -0.551052
thorax 1.93464 -1.18847 3.06674
lowerneck -8.43056 -14.0292 -18.6857
upperneck 19.2327 -18.7534 10.3336
head 10.2997 -9.2474 4.01515
rclavicle 8.02593e-014 -5.96354e-015
rhumerus -27.5196 24.8997 -93.5522
rradius 86.7699
rwrist 37.5465
rhand -35.2476 14.5463
rfingers 7.12502
rthumb -8.38377 -15.2673
lclavicle 8.02593e-014 -5.96354e-015
lhumerus -23.7151 -10.2823 86.7848
lradius 68.1962
lwrist -4.66243
lhand -21.8889 19.2995
lfingers 7.12502
lthumb 4.516 49.2314
rfemur -73.9314 -26.6557 25.8282
rtibia 136.993
rfoot 7.88556 4.60524
rtoes 5.61158
lfemur -43.7916 31.739 -18.391
ltibia 99.8187
lfoot 0.768327 -6.79934
ltoes -17.2694
651
root 0.491231 15.7408 -3.15785 342.672 -46.5814 -357.16
lowerback 18.3145 -0.0822426 -5.9155
upperback 11.1558 -1.40616 -0.469683
thorax 1.89488 -1.17826 3.05672
lowerneck -8.52101 -13.9625 -18.6731
upperneck 19.3335 -18.6509 10.3124
head 10.3327 -9.19829 4.01914
rclavicle 3.45885e-014 -2.34566e-014
rhumerus -27.6036 24.8893 -93.5274
rradius 86.8406
rwrist 37.6286
rhand -35.1979 14.4391
rfingers 7.12502
rthumb -8.33575 -15.3765
lclavicle 3.45885e-014 -2.34566e-014
lhumerus -23.7453 -10.2193 86.8585
lradius 68.1787
lwrist -4.76144
lhand -21.9212 19.3472
lfingers 7.12502
lthumb 4.48488 49.2797
rfemur -74.0573 -26.4152 26.2005
rtibia 136.805
rfoot 8.73364 4.41686
rtoes 5.8139
lfemur -43.9439 31.7414 -18.2085
ltibia 99.8512
lfoot 0.766675 -6.88386
ltoes -17.6563
652
root 0.491889 15.7434 -3.15521 342.881 -46.6084 -357.296
lowerback 18.2342 -0.0823234 -5.82969
upperback 11.1257 -1.38593 -0.435751
thorax 1.89835 -1.16299 3.04007
lowerneck -8.6218 -13.9177 -18.761
upperneck 19.4861 -18.586 10.3702
head 10.4119 -9.16588 4.05571
rclavicle 4.53229e-014 -2.42517e-014
rhumerus -27.6468 24.8404 -93.4823
rradius 86.8967
rwrist 37.6777
rhand -35.0857 14.4346
rfingers 7.12502
rthumb -8.22747 -15.3852
lclavicle 4.53229e-014 -2.42517e-014
lhumerus -23.7799 -10.1852 86.9239
lradius 68.1843
lwrist -4.89523
lhand -21.8274 19.1895
lfingers 7.12502
lthumb 4.57541 49.1201
rfemur -74.2655 -26.208 26.4122
rtibia 136.614
rfoot 9.89077 4.27529
rtoes 6.0096
lfemur -44.0862 31.7481 -18.1787
ltibia 99.8673
lfoot 0.747084 -6.89989
ltoes -17.9066
653
root 0.491511 15.7477 -3.15093 342.844 -46.6252 -357.107
lowerback 18.1053 -0.0606438 -5.95205
upperback 11.1197 -1.3657 -0.477942
thorax 1.95956 -1.15846 3.05794
lowerneck -8.73959 -13.8295 -18.7665
upperneck 19.6159 -18.4577 10.3904
head 10.4629 -9.10183 4.07994
rclavicle 2.55935e-014 2.18663e-015
rhumerus -27.6567 24.857 -93.4445
rradius 86.9603
rwrist 37.6926
rhand -35.111 14.4578
rfingers 7.12502
rthumb -8.25194 -15.3611
lclavicle 2.55935e-014 2.18663e-015
lhumerus -23.7566 -10.1562 86.9262
lradius 68.1881
lwrist -4.90287
lhand -21.8104 19.1611
lfingers 7.12502
lthumb 4.59184 49.0913
rfemur -74.481 -26.0491 26.3225
rtibia 136.429
rfoot 11.2649 4.16272
rtoes 5.30702
lfemur -44.1385 31.7388 -18.3872
ltibia 99.8383
lfoot 0.709126 -6.86649
ltoes -18.0798
654
root 0.491812 15.7519 -3.14765 342.799 -46.6755 -356.914
lowerback 18.0191 -0.0168201 -6.10321
upperback 11.0827 -1.32325 -0.489444
thorax 1.96519 -1.14263 3.12295
lowerneck -8.8079 -13.7135 -18.6622
upperneck 19.698 -18.2727 10.2511
head 10.4496 -9.02049 4.04826
rclavicle -1.19271e-015 1.41137e-014
rhumerus -27.7456 24.8173 -93.3936
rradius 87.0409
rwrist 37.7182
rhand -35.2439 14.6565
rfingers 7.12502
rthumb -8.3802 -15.1573
lclavicle -1.19271e-015 1.41137e-014
lhumerus -23.7568 -10.1053 86.9871
lradius 68.171
lwrist -4.92538
lhand -22.0041 18.9945
lfingers 7.12502
lthumb 4.40482 48.9287
rfemur -74.6826 -25.8448 26.2302
rtibia 136.215
rfoot 12.8446 3.95144
rtoes 5.37795
lfemur -44.1829 31.759 -18.5779
ltibia 99.7888
lfoot 0.698611 -6.8095
ltoes -18.2795
655
root 0.494109 15.7543 -3.14605 342.899 -46.7599 -356.994
lowerback 18.0708 -0.00403953 -6.11535
upperback 11.0266 -1.31145 -0.410893
thorax 1.87905 -1.13541 3.21387
lowerneck -8.87865 -13.5972 -18.6275
upperneck 19.7606 -18.0627 10.0742
head 10.4298 -8.9353 4.01719
rclavicle -4.2043e-014 -2.78299e-015
rhumerus -27.8804 24.896 -93.2946
rradius 87.1618
rwrist 37.7102
rhand -35.1817 14.7361
rfingers 7.12502
rthumb -8.3201 -15.08
lclavicle -4.2043e-014 -2.78299e-015
lhumerus -23.7945 -9.89419 87.1348
lradius 68.1431
lwrist -5.03768
lhand -22.1749 18.793
lfingers 7.12502
lthumb 4.23986 48.7305
rfemur -74.7744 -25.5509 26.331
rtibia 135.946
rfoot 14.5013 3.484
rtoes 6.07988
lfemur -44.2206 31.8223 -18.5113
ltibia 99.7744
lfoot 0.678228 -6.80817
ltoes -18.8572
